# xmcd
#
# Track frame offsets: 
#        150
#        12758
#        26186
#        41395
#        54376
#        70337
#        86795
#        107998
#        130492
#        141650
#        153195
#        167677
#        190070
#        201743
#
# Disc length: 2911 seconds
#
# Revision: 0
# Processed by: cddbd v1.5.2PL0 Copyright (c) Steve Scherf et al.
# Submitted via: ExactAudioCopy v0.99pb3
#
DISCID=cd0b5d0e
DTITLE=Replacements - Live at Al's Bar disc 1
DYEAR=1985
DGENRE=Ambient
TTITLE0=Color Me Impressed
TTITLE1=Raised in the City
TTITLE2=My Town
TTITLE3=Favorite Thing
TTITLE4=Kiss Me on the Bus
TTITLE5=Can't Hardly Wait
TTITLE6=Sixteen Blue
TTITLE7=Take Me Down to the Hospital
TTITLE8=Hitchin' a Ride
TTITLE9=Love You Till Friday
TTITLE10=Unsatisfied
TTITLE11=Jean Genie
TTITLE12=I'm in Trouble
TTITLE13=I Will Dare
EXTD=
EXTT0=
EXTT1=
EXTT2=
EXTT3=
EXTT4=
EXTT5=
EXTT6=
EXTT7=
EXTT8=
EXTT9=
EXTT10=
EXTT11=
EXTT12=
EXTT13=
PLAYORDER=
